<svg width="42" height="42" viewBox="0 0 42 42" fill="none" xmlns="http://www.w3.org/2000/svg">
<rect x="10.75" y="10.75" width="20.5" height="20.5" rx="5.25" stroke="#A2AEBC" stroke-width="1.5"/>
<path d="M15 16C15 15.4477 15.4477 15 16 15H19C19.5523 15 20 15.4477 20 16V19C20 19.5523 19.5523 20 19 20H16C15.4477 20 15 19.5523 15 19V16Z" fill="#A2AEBC"/>
<path d="M22 16C22 15.4477 22.4477 15 23 15H26C26.5523 15 27 15.4477 27 16V19C27 19.5523 26.5523 20 26 20H23C22.4477 20 22 19.5523 22 19V16Z" fill="#A2AEBC"/>
<path d="M22 23C22 22.4477 22.4477 22 23 22H26C26.5523 22 27 22.4477 27 23V26C27 26.5523 26.5523 27 26 27H23C22.4477 27 22 26.5523 22 26V23Z" fill="#A2AEBC"/>
<path d="M15 23C15 22.4477 15.4477 22 16 22H19C19.5523 22 20 22.4477 20 23V26C20 26.5523 19.5523 27 19 27H16C15.4477 27 15 26.5523 15 26V23Z" fill="#A2AEBC"/>
</svg>
