<svg width="24" height="24" viewBox="0 0 24 24" fill="none" xmlns="http://www.w3.org/2000/svg">
<path d="M12.9 8C12.9 7.50294 12.4971 7.1 12 7.1C11.5029 7.1 11.1 7.50294 11.1 8H12.9ZM11.1 16C11.1 16.4971 11.5029 16.9 12 16.9C12.4971 16.9 12.9 16.4971 12.9 16H11.1ZM16 12.9C16.4971 12.9 16.9 12.4971 16.9 12C16.9 11.5029 16.4971 11.1 16 11.1V12.9ZM8 11.1C7.50294 11.1 7.1 11.5029 7.1 12C7.1 12.4971 7.50294 12.9 8 12.9L8 11.1ZM11.1 8V16H12.9V8H11.1ZM16 11.1L8 11.1L8 12.9L16 12.9V11.1Z" fill="#626F7F"/>
<rect x="3.9" y="3.9" width="16.2" height="16.2" rx="3.1" stroke="#626F7F" stroke-width="1.8"/>
</svg>
