<svg width="17" height="17" viewBox="0 0 17 17" fill="none" xmlns="http://www.w3.org/2000/svg">
<g id="Icon/Outline/all-done">
<path id="Mask" fill-rule="evenodd" clip-rule="evenodd" d="M11.3123 4.64191C11.0238 4.41391 10.6062 4.46591 10.3795 4.75591L5.6885 10.7612L3.44177 7.96325C3.21038 7.67725 2.79281 7.63058 2.5069 7.86191C2.22032 8.09325 2.17577 8.51325 2.40517 8.79925L5.17719 12.2512C5.30418 12.4086 5.49435 12.4999 5.69582 12.4999H5.70047C5.9026 12.4986 6.0941 12.4046 6.2191 12.2439L11.426 5.57725C11.6528 5.28791 11.6022 4.86858 11.3123 4.64191ZM14.6369 4.64191C14.3476 4.41391 13.9307 4.46591 13.704 4.75591L9.01306 10.7612L8.61145 10.2619L7.77034 11.3399L8.50174 12.2512C8.62874 12.4086 8.81891 12.4999 9.02038 12.4999H9.02503C9.22716 12.4986 9.41866 12.4046 9.54366 12.2439L14.7506 5.57725C14.9773 5.28791 14.9268 4.86858 14.6369 4.64191ZM6.89978 8.12964L6.05733 9.20697L5.7302 8.79964C5.50014 8.51297 5.54469 8.09297 5.83126 7.86164C6.11784 7.63097 6.53607 7.67697 6.76613 7.96364L6.89978 8.12964Z" fill="#231F20"/>
<mask id="mask0" mask-type="alpha" maskUnits="userSpaceOnUse" x="2" y="4" width="13" height="9">
<path id="Mask_2" fill-rule="evenodd" clip-rule="evenodd" d="M11.3123 4.64191C11.0238 4.41391 10.6062 4.46591 10.3795 4.75591L5.6885 10.7612L3.44177 7.96325C3.21038 7.67725 2.79281 7.63058 2.5069 7.86191C2.22032 8.09325 2.17577 8.51325 2.40517 8.79925L5.17719 12.2512C5.30418 12.4086 5.49435 12.4999 5.69582 12.4999H5.70047C5.9026 12.4986 6.0941 12.4046 6.2191 12.2439L11.426 5.57725C11.6528 5.28791 11.6022 4.86858 11.3123 4.64191ZM14.6369 4.64191C14.3476 4.41391 13.9307 4.46591 13.704 4.75591L9.01306 10.7612L8.61145 10.2619L7.77034 11.3399L8.50174 12.2512C8.62874 12.4086 8.81891 12.4999 9.02038 12.4999H9.02503C9.22716 12.4986 9.41866 12.4046 9.54366 12.2439L14.7506 5.57725C14.9773 5.28791 14.9268 4.86858 14.6369 4.64191ZM6.89978 8.12964L6.05733 9.20697L5.7302 8.79964C5.50014 8.51297 5.54469 8.09297 5.83126 7.86164C6.11784 7.63097 6.53607 7.67697 6.76613 7.96364L6.89978 8.12964Z" fill="white"/>
</mask>
<g mask="url(#mask0)">
<g id="&#240;&#159;&#142;&#168; Color">
<rect id="Base" x="0.264038" y="0.5" width="15.9579" height="16" fill="#003399"/>
</g>
</g>
</g>
</svg>
