<svg width="25" height="24" viewBox="0 0 25 24" fill="none" xmlns="http://www.w3.org/2000/svg">
<path d="M10.3 17.25C10.3 18.4926 9.29269 19.5 8.05005 19.5C6.80741 19.5 5.80005 18.4926 5.80005 17.25C5.80005 16.0074 6.80741 15 8.05005 15C9.29269 15 10.3 16.0074 10.3 17.25ZM10.3 17.25V7C10.3 5.89543 11.1954 5 12.3 5H18.3C19.4046 5 20.3 5.89543 20.3 7V14.25M20.3 14.25C20.3 15.4926 19.2927 16.5 18.05 16.5C16.8074 16.5 15.8 15.4926 15.8 14.25C15.8 13.0074 16.8074 12 18.05 12C19.2927 12 20.3 13.0074 20.3 14.25Z" stroke="#626F7F" stroke-width="1.8" stroke-linecap="round" stroke-linejoin="round"/>
</svg>
