<svg width="22" height="22" viewBox="0 0 16 17" fill="none" xmlns="http://www.w3.org/2000/svg">
<path fill-rule="evenodd" clip-rule="evenodd" d="M12 6.41667H11.3334V5.08333C11.3334 3.24333 9.84002 1.75 8.00002 1.75C6.16002 1.75 4.66669 3.24333 4.66669 5.08333V6.41667H4.00002C3.26669 6.41667 2.66669 7.01667 2.66669 7.75V14.4167C2.66669 15.15 3.26669 15.75 4.00002 15.75H12C12.7334 15.75 13.3334 15.15 13.3334 14.4167V7.75C13.3334 7.01667 12.7334 6.41667 12 6.41667ZM6.00002 5.08333C6.00002 3.97667 6.89335 3.08333 8.00002 3.08333C9.10669 3.08333 10 3.97667 10 5.08333V6.41667H6.00002V5.08333ZM9.33335 11.0833C9.33335 11.8167 8.73335 12.4167 8.00002 12.4167C7.26669 12.4167 6.66669 11.8167 6.66669 11.0833C6.66669 10.35 7.26669 9.75 8.00002 9.75C8.73335 9.75 9.33335 10.35 9.33335 11.0833Z" fill="#E36E63"/>
</svg>
