<svg width="14" height="19" viewBox="0 0 14 19" fill="none" xmlns="http://www.w3.org/2000/svg">
<path fill-rule="evenodd" clip-rule="evenodd" d="M12.0784 6.03922H11.2157V4.31372C11.2157 1.93254 9.28313 0 6.90196 0C4.52078 0 2.58824 1.93254 2.58824 4.31372V6.03922H1.72549C0.77647 6.03922 0 6.81569 0 7.76471V16.3922C0 17.3412 0.77647 18.1176 1.72549 18.1176H12.0784C13.0275 18.1176 13.804 17.3412 13.804 16.3922V7.76471C13.804 6.81569 13.0275 6.03922 12.0784 6.03922ZM4.31372 4.31372C4.31372 2.88157 5.4698 1.72549 6.90196 1.72549C8.33412 1.72549 9.49017 2.88157 9.49017 4.31372V6.03922H4.31372V4.31372ZM8.62744 12.0784C8.62744 13.0275 7.85097 13.804 6.90196 13.804C5.95294 13.804 5.17647 13.0275 5.17647 12.0784C5.17647 11.1294 5.95294 10.3529 6.90196 10.3529C7.85097 10.3529 8.62744 11.1294 8.62744 12.0784Z" fill="#626F7F"/>
</svg>
