<svg width="127" height="127" viewBox="0 0 127 127" fill="none" xmlns="http://www.w3.org/2000/svg">
<g opacity="0.2">
<path fill-rule="evenodd" clip-rule="evenodd" d="M63.7434 37.1374C63.6696 36.5474 63.9871 35.9893 64.4527 35.6194C65.5918 34.7147 66.3222 33.3176 66.3222 31.7499C66.3222 29.0223 64.111 26.811 61.3833 26.811C58.6556 26.811 56.4444 29.0223 56.4444 31.7499C56.4444 33.9068 57.8269 35.7407 59.7541 36.4138C60.3712 36.6293 60.8966 37.117 60.9777 37.7655L61.7032 43.5693C61.8085 44.4116 61.1518 45.1555 60.303 45.1555H59.2666C41.637 45.1555 28.2222 59.6814 28.2222 74.1185V79.516C28.2222 97.9446 48.9296 101.6 63.4999 101.6C78.0703 101.6 98.7777 97.9446 98.7777 79.516V74.1185C98.7777 59.6814 85.3629 45.1555 67.7333 45.1555H65.9914C65.2797 45.1555 64.6794 44.6256 64.5911 43.9194L63.7434 37.1374ZM36.6888 69.6383C36.6888 60.0135 49.029 50.7999 60.2826 50.7999H66.7173C77.9709 50.7999 90.3111 60.0135 90.3111 69.6383V73.2366C90.3111 85.8911 73.0554 87.4888 63.4999 87.4888C53.9445 87.4888 36.6888 85.8911 36.6888 73.2366V69.6383Z" fill="#626F7F"/>
<path d="M54.8213 63.6927C55.7662 63.1471 57.1639 63.7992 57.9433 65.149C58.7226 66.4989 58.5884 68.0354 57.6435 68.5809L52.5108 71.5442C51.5659 72.0898 50.1682 71.4378 49.3888 70.0879C48.6095 68.7381 48.7437 67.2015 49.6886 66.656L54.8213 63.6927Z" fill="#626F7F"/>
<path d="M74.5768 71.5442C75.5217 72.0898 76.9195 71.4378 77.6988 70.0879C78.4781 68.7381 78.3439 67.2015 77.399 66.656L72.2664 63.6927C71.3215 63.1471 69.9237 63.7992 69.1444 65.149C68.3651 66.4989 68.4993 68.0354 69.4442 68.5809L74.5768 71.5442Z" fill="#626F7F"/>
</g>
</svg>
