<?xml version="1.0" encoding="UTF-8"?>
<svg xmlns="http://www.w3.org/2000/svg" xmlns:xlink="http://www.w3.org/1999/xlink" width="9pt" height="10pt" viewBox="0 0 9 10" version="1.1">
<g id="surface1">
<path style=" stroke:none;fill-rule:nonzero;fill:rgb(0%,0%,0%);fill-opacity:1;" d="M 0 9.0625 C 0 9.578125 0.433594 10 0.964844 10 L 8.035156 10 C 8.566406 10 9 9.578125 9 9.0625 L 9 3.75 L 0 3.75 Z M 6.429688 5.234375 C 6.429688 5.105469 6.535156 5 6.667969 5 L 7.472656 5 C 7.605469 5 7.714844 5.105469 7.714844 5.234375 L 7.714844 6.015625 C 7.714844 6.144531 7.605469 6.25 7.472656 6.25 L 6.667969 6.25 C 6.535156 6.25 6.429688 6.144531 6.429688 6.015625 Z M 6.429688 7.734375 C 6.429688 7.605469 6.535156 7.5 6.667969 7.5 L 7.472656 7.5 C 7.605469 7.5 7.714844 7.605469 7.714844 7.734375 L 7.714844 8.515625 C 7.714844 8.644531 7.605469 8.75 7.472656 8.75 L 6.667969 8.75 C 6.535156 8.75 6.429688 8.644531 6.429688 8.515625 Z M 3.855469 5.234375 C 3.855469 5.105469 3.964844 5 4.097656 5 L 4.902344 5 C 5.035156 5 5.144531 5.105469 5.144531 5.234375 L 5.144531 6.015625 C 5.144531 6.144531 5.035156 6.25 4.902344 6.25 L 4.097656 6.25 C 3.964844 6.25 3.855469 6.144531 3.855469 6.015625 Z M 3.855469 7.734375 C 3.855469 7.605469 3.964844 7.5 4.097656 7.5 L 4.902344 7.5 C 5.035156 7.5 5.144531 7.605469 5.144531 7.734375 L 5.144531 8.515625 C 5.144531 8.644531 5.035156 8.75 4.902344 8.75 L 4.097656 8.75 C 3.964844 8.75 3.855469 8.644531 3.855469 8.515625 Z M 1.285156 5.234375 C 1.285156 5.105469 1.394531 5 1.527344 5 L 2.332031 5 C 2.464844 5 2.570312 5.105469 2.570312 5.234375 L 2.570312 6.015625 C 2.570312 6.144531 2.464844 6.25 2.332031 6.25 L 1.527344 6.25 C 1.394531 6.25 1.285156 6.144531 1.285156 6.015625 Z M 1.285156 7.734375 C 1.285156 7.605469 1.394531 7.5 1.527344 7.5 L 2.332031 7.5 C 2.464844 7.5 2.570312 7.605469 2.570312 7.734375 L 2.570312 8.515625 C 2.570312 8.644531 2.464844 8.75 2.332031 8.75 L 1.527344 8.75 C 1.394531 8.75 1.285156 8.644531 1.285156 8.515625 Z M 8.035156 1.25 L 7.070312 1.25 L 7.070312 0.3125 C 7.070312 0.140625 6.925781 0 6.75 0 L 6.105469 0 C 5.929688 0 5.785156 0.140625 5.785156 0.3125 L 5.785156 1.25 L 3.214844 1.25 L 3.214844 0.3125 C 3.214844 0.140625 3.070312 0 2.894531 0 L 2.25 0 C 2.074219 0 1.929688 0.140625 1.929688 0.3125 L 1.929688 1.25 L 0.964844 1.25 C 0.433594 1.25 0 1.671875 0 2.1875 L 0 3.125 L 9 3.125 L 9 2.1875 C 9 1.671875 8.566406 1.25 8.035156 1.25 Z M 8.035156 1.25 "/>
</g>
</svg>
