<svg width="24" height="24" viewBox="0 0 24 24" fill="none" xmlns="http://www.w3.org/2000/svg">
<path d="M7.58273 20.9195C7.91126 20.9732 8.24361 21.0001 8.5765 21C10.0269 21 11.2806 20.6777 12.3317 19.7479C12.5799 19.5574 13.0703 18.8516 12.5469 18.3281C12.006 17.7872 11.3794 18.2433 11.1664 18.432C10.2686 19.2272 9.13121 19.3909 7.86571 19.1845C7.09199 19.0583 6.39139 18.7331 5.83949 18.2445C5.07421 17.5663 4.68401 16.6406 4.76943 15.7013C4.83868 14.9429 5.21869 14.2222 5.83949 13.6727L15.2151 5.37199C16.1333 4.55848 17.6853 4.55848 18.6035 5.37199C19.1691 5.87262 19.3762 6.57047 19.1579 7.23844C19.0361 7.58934 18.8234 7.9017 18.5417 8.14371L10.9838 14.8339C10.7265 15.0618 10.0719 15.5423 9.55235 15.0825C9.36498 14.9152 9.25952 14.7014 9.25952 14.4806C9.25952 14.2598 9.36358 14.0461 9.55235 13.8787L15.3442 8.75086C15.5172 8.59592 15.6219 8.37878 15.6353 8.14689C15.6487 7.91499 15.5698 7.68721 15.4158 7.51333C15.2619 7.33944 15.0453 7.23359 14.8135 7.2189C14.5817 7.20422 14.3535 7.2819 14.1788 7.43496L8.38738 12.5625C7.81614 13.0684 7.50187 13.748 7.50187 14.4792C7.50187 15.2105 7.81614 15.8914 8.38738 16.397C8.65584 16.6389 8.9741 16.8189 9.3197 16.9243C9.66531 17.0298 10.0298 17.0581 10.3876 17.0073C11.0006 16.9219 11.6095 16.6262 12.1491 16.1484L19.7059 9.45855C20.2343 8.99062 20.622 8.4116 20.8273 7.78371C21.2643 6.44883 20.8579 5.02008 19.7682 4.05469C18.998 3.37477 17.9838 3 16.9074 3C15.831 3 14.8165 3.37477 14.0477 4.05469L4.67417 12.3565C3.71695 13.2041 3.12919 14.3354 3.01917 15.5416C2.88207 17.0428 3.48529 18.5078 4.67417 19.5607C5.47355 20.2702 6.48068 20.7398 7.58273 20.9195Z" fill="#1A53C6"/>
<path d="M16.25 15V19.5M18.5 17.25H14" stroke="#1A53C6" stroke-width="1.8" stroke-linecap="round" stroke-linejoin="round"/>
</svg>
