<svg width="20" height="20" viewBox="0 0 20 20" fill="none" xmlns="http://www.w3.org/2000/svg">
<g opacity="0.5">
<path d="M14.2427 7.17158C14.6332 6.78106 14.6332 6.1479 14.2427 5.75737C13.8521 5.36685 13.219 5.36685 12.8284 5.75737L14.2427 7.17158ZM5.75737 12.8284C5.36685 13.219 5.36685 13.8521 5.75737 14.2427C6.1479 14.6332 6.78106 14.6332 7.17158 14.2427L5.75737 12.8284ZM12.8284 14.2427C13.219 14.6332 13.8521 14.6332 14.2427 14.2427C14.6332 13.8521 14.6332 13.219 14.2427 12.8284L12.8284 14.2427ZM7.17158 5.75737C6.78106 5.36685 6.1479 5.36685 5.75737 5.75737C5.36685 6.1479 5.36685 6.78106 5.75737 7.17158L7.17158 5.75737ZM12.8284 5.75737L9.2929 9.2929L10.7071 10.7071L14.2427 7.17158L12.8284 5.75737ZM9.2929 9.2929L5.75737 12.8284L7.17158 14.2427L10.7071 10.7071L9.2929 9.2929ZM14.2427 12.8284L10.7071 9.2929L9.2929 10.7071L12.8284 14.2427L14.2427 12.8284ZM10.7071 9.2929L7.17158 5.75737L5.75737 7.17158L9.2929 10.7071L10.7071 9.2929Z" fill="#626F7F"/>
</g>
</svg>
