<svg width="19" height="19" viewBox="0 0 19 19" fill="none" xmlns="http://www.w3.org/2000/svg">
<path fill-rule="evenodd" clip-rule="evenodd" d="M5.19136 2.475L5.80743 0.626791C5.9322 0.252478 6.2825 0 6.67706 0H11.627C12.0216 0 12.3719 0.252478 12.4966 0.626791L13.1127 2.475H17.402C17.9082 2.475 18.3186 2.8854 18.3186 3.39166C18.3186 3.89792 17.9082 4.30833 17.402 4.30833H16.6163L15.9436 15.7448C15.8581 17.1984 14.6544 18.3333 13.1984 18.3333H5.10572C3.64966 18.3333 2.44597 17.1984 2.36046 15.7448L1.68773 4.30833H0.916666C0.410405 4.30833 0 3.89792 0 3.39166C0 2.8854 0.410405 2.475 0.916666 2.475H5.19136ZM7.12387 2.475H11.1802L10.9663 1.83333H7.33776L7.12387 2.475ZM14.7798 4.30833H3.52422L4.19063 15.6371C4.21913 16.1217 4.62036 16.5 5.10571 16.5H13.1984C13.6837 16.5 14.0849 16.1217 14.1134 15.6371L14.7798 4.30833ZM10.7121 6.63448C10.7437 6.12921 11.1789 5.7452 11.6842 5.77678C12.1895 5.80836 12.5735 6.24357 12.5419 6.74884L12.1294 13.3488C12.0978 13.8541 11.6626 14.2381 11.1573 14.2065C10.6521 14.175 10.2681 13.7397 10.2996 13.2345L10.7121 6.63448ZM8.00445 13.2345C8.03603 13.7397 7.65202 14.175 7.14675 14.2065C6.64147 14.2381 6.20627 13.8541 6.17469 13.3488L5.76219 6.74884C5.73061 6.24357 6.11461 5.80836 6.61989 5.77678C7.12516 5.7452 7.56037 6.12921 7.59195 6.63448L8.00445 13.2345Z" fill="#626F7F"/>
</svg>
