<svg width="24" height="24" viewBox="0 0 24 24" fill="none" xmlns="http://www.w3.org/2000/svg">
<path d="M5 16.25L7.74619 12.7567C8.5249 11.7661 10.0145 11.7337 10.8356 12.6895L13.25 15.5M11.165 13.073C12.2022 11.7537 13.6473 9.88455 13.7414 9.76294C13.7447 9.75859 13.7479 9.75448 13.7513 9.75017C14.5315 8.76598 16.0163 8.73581 16.8356 9.68947L19.25 12.5M7 19.5H17.5C18.6046 19.5 19.5 18.6046 19.5 17.5V7C19.5 5.89543 18.6046 5 17.5 5H7C5.89543 5 5 5.89543 5 7V17.5C5 18.6046 5.89543 19.5 7 19.5Z" stroke="#626F7F" stroke-width="1.8" stroke-linecap="round" stroke-linejoin="round"/>
</svg>
