<svg width="33" height="33" viewBox="0 0 33 33" fill="none" xmlns="http://www.w3.org/2000/svg">
<circle cx="16.4509" cy="16.2498" r="16" fill="#FFD336"/>
<path d="M16.4507 23.2498C17.5553 23.2498 18.4507 22.3544 18.4507 21.2498C18.4507 21.056 18.282 20.9149 18.0882 20.9127L14.8665 20.8761C14.6465 20.8736 14.4507 21.0297 14.4507 21.2498C14.4507 22.3544 15.3461 23.2498 16.4507 23.2498Z" fill="#010101"/>
<path d="M11.7839 14.2498C11.7839 11.6725 13.8733 9.24979 16.4506 9.24979C19.0279 9.24979 21.1173 11.6725 21.1173 14.2498V15.8902C21.1173 16.755 21.4871 17.5785 22.1334 18.153C22.827 18.7695 22.3909 19.9165 21.463 19.9165H11.4382C10.5103 19.9165 10.0742 18.7695 10.7678 18.153C11.4141 17.5785 11.7839 16.755 11.7839 15.8902V14.2498Z" fill="#010101"/>
</svg>
