<svg width="18" height="17" viewBox="0 0 18 17" fill="none" xmlns="http://www.w3.org/2000/svg">
<path fill-rule="evenodd" clip-rule="evenodd" d="M10.2564 2.11537C10.2564 1.72594 10.5721 1.41024 10.9615 1.41024H15.1923C15.5817 1.41024 15.8974 1.72594 15.8974 2.11537V6.34614C15.8974 6.73557 15.5817 7.05127 15.1923 7.05127C14.8029 7.05127 14.4872 6.73557 14.4872 6.34614V2.8205H10.9615C10.5721 2.8205 10.2564 2.5048 10.2564 2.11537Z" fill="black"/>
<path fill-rule="evenodd" clip-rule="evenodd" d="M2.5 9.87178C2.88943 9.87178 3.20513 10.1875 3.20513 10.5769V14.1025H6.73077C7.1202 14.1025 7.4359 14.4182 7.4359 14.8077C7.4359 15.1971 7.1202 15.5128 6.73077 15.5128H2.5C2.11057 15.5128 1.79487 15.1971 1.79487 14.8077V10.5769C1.79487 10.1875 2.11057 9.87178 2.5 9.87178Z" fill="black"/>
<path fill-rule="evenodd" clip-rule="evenodd" d="M15.6909 1.61677C15.9663 1.89214 15.9663 2.3386 15.6909 2.61397L10.755 7.54987C10.4796 7.82524 10.0332 7.82524 9.75781 7.54987C9.48244 7.2745 9.48244 6.82803 9.75781 6.55266L14.6937 1.61677C14.9691 1.3414 15.4155 1.3414 15.6909 1.61677Z" fill="black"/>
<path fill-rule="evenodd" clip-rule="evenodd" d="M7.9345 9.37318C8.20987 9.64855 8.20987 10.095 7.9345 10.3704L2.9986 15.3063C2.72323 15.5816 2.27677 15.5816 2.0014 15.3063C1.72603 15.0309 1.72603 14.5844 2.0014 14.3091L6.9373 9.37318C7.21267 9.09781 7.65913 9.09781 7.9345 9.37318Z" fill="black"/>
</svg>
