<svg width="20" height="20" viewBox="0 0 20 20" fill="none" xmlns="http://www.w3.org/2000/svg">
<path fill-rule="evenodd" clip-rule="evenodd" d="M10 18.0952C14.4709 18.0952 18.0952 14.4709 18.0952 10C18.0952 5.52912 14.4709 1.90476 10 1.90476C5.52912 1.90476 1.90476 5.52912 1.90476 10C1.90476 14.4709 5.52912 18.0952 10 18.0952ZM10 20C15.5228 20 20 15.5228 20 10C20 4.47715 15.5228 0 10 0C4.47715 0 0 4.47715 0 10C0 15.5228 4.47715 20 10 20Z" fill="#EBA236"/>
<path d="M7.61905 6.66667C7.61905 6.14068 8.04544 5.71429 8.57143 5.71429C9.09741 5.71429 9.52381 6.14068 9.52381 6.66667V13.3333C9.52381 13.8593 9.09741 14.2857 8.57143 14.2857C8.04544 14.2857 7.61905 13.8593 7.61905 13.3333V6.66667Z" fill="#EBA236"/>
<path d="M10.4762 6.66667C10.4762 6.14068 10.9026 5.71429 11.4286 5.71429C11.9546 5.71429 12.381 6.14068 12.381 6.66667V13.3333C12.381 13.8593 11.9546 14.2857 11.4286 14.2857C10.9026 14.2857 10.4762 13.8593 10.4762 13.3333V6.66667Z" fill="#EBA236"/>
</svg>
