<svg width="22" height="22" viewBox="0 0 16 17" fill="none" xmlns="http://www.w3.org/2000/svg">
<path fill-rule="evenodd" clip-rule="evenodd" d="M9.45466 5.04095C9.89649 5.04095 10.2547 5.39913 10.2547 5.84095V11.6591C10.2547 12.101 9.89649 12.4591 9.45466 12.4591C9.01284 12.4591 8.65466 12.101 8.65466 11.6591V5.84095C8.65466 5.39913 9.01284 5.04095 9.45466 5.04095Z" fill="#EBA236"/>
<path fill-rule="evenodd" clip-rule="evenodd" d="M6.54542 5.04095C6.98725 5.04095 7.34542 5.39913 7.34542 5.84095V11.6591C7.34542 12.101 6.98725 12.4591 6.54542 12.4591C6.10359 12.4591 5.74542 12.101 5.74542 11.6591V5.84095C5.74542 5.39913 6.10359 5.04095 6.54542 5.04095Z" fill="#EBA236"/>
<path fill-rule="evenodd" clip-rule="evenodd" d="M8 15.15C11.5346 15.15 14.4 12.2846 14.4 8.75C14.4 5.21538 11.5346 2.35 8 2.35C4.46538 2.35 1.6 5.21538 1.6 8.75C1.6 12.2846 4.46538 15.15 8 15.15ZM8 16.75C12.4183 16.75 16 13.1683 16 8.75C16 4.33172 12.4183 0.75 8 0.75C3.58172 0.75 0 4.33172 0 8.75C0 13.1683 3.58172 16.75 8 16.75Z" fill="#EBA236"/>
</svg>
