<svg width="24" height="24" viewBox="0 0 24 24" fill="none" xmlns="http://www.w3.org/2000/svg">
<g opacity="0.74">
<path d="M13.8159 15.105L13.779 15.0682L17.1039 10.9413L17.9001 11.7375L18.2585 11.3791C19.2472 10.3904 19.2472 8.78178 18.2585 7.7931L16.2069 5.7415C15.2182 4.75285 13.6096 4.75282 12.6209 5.7415L12.2625 6.09988L13.0587 6.89608L8.93176 10.2209L8.89497 10.1841C7.91865 9.20782 6.33814 9.1963 5.34672 10.1483L13.8517 18.6533C14.8037 17.6619 14.7922 16.0814 13.8159 15.105Z" fill="#626F7F"/>
<path d="M8.16516 14.4002L5.1435 17.4219L5 19L6.57811 18.8565L9.59978 15.8348L8.16516 14.4002Z" fill="#626F7F"/>
</g>
</svg>
