<svg width="24" height="25" viewBox="0 0 24 25" fill="none" xmlns="http://www.w3.org/2000/svg">
<g opacity="0.74">
<path fill-rule="evenodd" clip-rule="evenodd" d="M11.25 5.33333C7.70617 5.33333 4.83333 8.20617 4.83333 11.75C4.83333 15.2938 7.70617 18.1667 11.25 18.1667C14.7938 18.1667 17.6667 15.2938 17.6667 11.75C17.6667 8.20617 14.7938 5.33333 11.25 5.33333ZM3 11.75C3 7.19365 6.69365 3.5 11.25 3.5C15.8064 3.5 19.5 7.19365 19.5 11.75C19.5 16.3063 15.8064 20 11.25 20C6.69365 20 3 16.3063 3 11.75Z" fill="#626F7F"/>
<path fill-rule="evenodd" clip-rule="evenodd" d="M15.7812 16.281C16.1392 15.923 16.7196 15.923 17.0776 16.281L21.0651 20.2685C21.423 20.6265 21.423 21.2069 21.0651 21.5649C20.7071 21.9228 20.1267 21.9228 19.7687 21.5649L15.7812 17.5774C15.4232 17.2194 15.4232 16.639 15.7812 16.281Z" fill="#626F7F"/>
</g>
</svg>
