<svg width="24" height="24" viewBox="0 0 24 24" fill="none" xmlns="http://www.w3.org/2000/svg">
<path d="M13.9459 8.5V9.4H14.8459V8.5H13.9459ZM13.9459 5L14.586 4.36732C14.3295 4.10775 13.9415 4.02882 13.604 4.16751C13.2664 4.30619 13.0459 4.63503 13.0459 5H13.9459ZM20 11.125L20.6401 11.7577L21.2654 11.125L20.6401 10.4923L20 11.125ZM13.9459 17.25H13.0459C13.0459 17.615 13.2664 17.9438 13.604 18.0825C13.9415 18.2212 14.3295 18.1423 14.586 17.8827L13.9459 17.25ZM13.9459 13.75H14.8459V12.85H13.9459V13.75ZM4 19H3.1C3.1 19.3922 3.35392 19.7392 3.7277 19.8578C4.10147 19.9765 4.50905 19.8394 4.73523 19.5191L4 19ZM14.8459 8.5V5H13.0459V8.5H14.8459ZM13.3059 5.63268L19.3599 11.7577L20.6401 10.4923L14.586 4.36732L13.3059 5.63268ZM19.3599 10.4923L13.3059 16.6173L14.586 17.8827L20.6401 11.7577L19.3599 10.4923ZM14.8459 17.25V13.75H13.0459V17.25H14.8459ZM13.9459 12.85C11.2176 12.85 9.10737 13.4272 7.37872 14.4525C5.65927 15.4722 4.38326 16.8967 3.26477 18.4809L4.73523 19.5191C5.7789 18.0408 6.88125 16.8403 8.29692 16.0007C9.7034 15.1665 11.4851 14.65 13.9459 14.65V12.85ZM4.9 19C4.9 15.9221 5.90988 13.5355 7.50496 11.9217C9.10187 10.3061 11.3491 9.4 13.9459 9.4V7.6C10.9212 7.6 8.19543 8.66264 6.22477 10.6564C4.25228 12.652 3.1 15.5154 3.1 19H4.9Z" fill="#626F7F"/>
</svg>
