<svg width="16" height="17" viewBox="0 0 16 17" fill="none" xmlns="http://www.w3.org/2000/svg">
<path opacity="0.3" fill-rule="evenodd" clip-rule="evenodd" d="M2.66669 3.41665L7.63144 2.48575C7.87504 2.44008 8.125 2.44008 8.3686 2.48575L13.3334 3.41665V7.04545C13.3334 10.5942 11.5052 13.8926 8.49592 15.7734C8.19251 15.963 7.80753 15.963 7.50412 15.7734C4.49482 13.8926 2.66669 10.5942 2.66669 7.04545L2.66669 3.41665Z" fill="#1A53C6"/>
<path opacity="0.3" fill-rule="evenodd" clip-rule="evenodd" d="M8.00002 8.08335C7.26364 8.08335 6.66669 7.4864 6.66669 6.75002C6.66669 6.01364 7.26364 5.41669 8.00002 5.41669C8.7364 5.41669 9.33335 6.01364 9.33335 6.75002C9.33335 7.4864 8.7364 8.08335 8.00002 8.08335Z" fill="#1A53C6"/>
<path opacity="0.3" fill-rule="evenodd" clip-rule="evenodd" d="M4.66693 11.7497C4.81049 9.76105 6.24517 8.75 7.99385 8.75C9.76714 8.75 11.2241 9.7055 11.3326 11.75C11.3369 11.8314 11.3326 12.0833 11.0544 12.0833C9.68192 12.0833 7.64251 12.0833 4.93613 12.0833C4.84325 12.0833 4.65911 11.858 4.66693 11.7497Z" fill="#1A53C6"/>
</svg>
