<svg width="55" height="27" viewBox="0 0 55 27" fill="none" xmlns="http://www.w3.org/2000/svg">
<path fill-rule="evenodd" clip-rule="evenodd" d="M11.7839 0.106934C5.36713 0.106934 0.165283 5.31147 0.165283 11.7316C0.165283 11.9586 0.171786 12.1841 0.184615 12.4078L0.184793 25.6249C0.184808 26.7477 1.48407 27.3705 2.35874 26.6673L6.45994 23.3693L20.8231 23.3693L20.8012 23.3563H43.2163C49.633 23.3563 54.8349 18.1517 54.8349 11.7316C54.8349 5.31147 49.633 0.106934 43.2163 0.106934H11.7839Z" fill="#003399"/>
<path d="M4.67647 15.0664C4.60294 14.9683 4.56616 14.8457 4.56616 14.6986C4.56616 14.486 4.67238 14.3061 4.88483 14.159C4.99922 14.0854 5.1177 14.0486 5.24027 14.0486C5.41185 14.0486 5.57528 14.1263 5.73052 14.2816C5.97565 14.535 6.22896 14.7231 6.49044 14.8457C6.76007 14.9683 7.08282 15.0297 7.4587 15.0297C8.09603 15.0051 8.4147 14.7639 8.4147 14.3061C8.4147 14.0691 8.30439 13.8892 8.08377 13.7666C7.87133 13.6439 7.53632 13.5213 7.07874 13.3987C6.60481 13.2679 6.2167 13.1371 5.91438 13.0063C5.62021 12.8755 5.36284 12.6793 5.14222 12.4177C4.92978 12.1479 4.82356 11.7882 4.82356 11.3385C4.82356 10.9461 4.93387 10.6068 5.15448 10.3207C5.38327 10.0264 5.67742 9.80158 6.03695 9.64626C6.40463 9.48275 6.79276 9.401 7.20131 9.401C7.61802 9.401 8.03474 9.47866 8.45148 9.634C8.86819 9.78931 9.19503 10.0182 9.43199 10.3207C9.53822 10.4515 9.59131 10.5987 9.59131 10.7622C9.59131 10.9502 9.5137 11.1055 9.35844 11.2282C9.24404 11.3181 9.11333 11.3631 8.96624 11.3631C8.78649 11.3631 8.6394 11.3058 8.52501 11.1914C8.37792 11.0115 8.18591 10.8685 7.94895 10.7622C7.72016 10.6559 7.4587 10.6028 7.16453 10.6028C6.54354 10.6028 6.23305 10.8276 6.23305 11.2772C6.23305 11.4571 6.29023 11.6042 6.40463 11.7187C6.51902 11.825 6.66202 11.9108 6.8336 11.9762C7.01338 12.0334 7.26258 12.107 7.58127 12.1969C8.0225 12.3195 8.39018 12.4463 8.68435 12.5771C8.9785 12.7079 9.22772 12.9082 9.43199 13.178C9.63626 13.4477 9.7384 13.8034 9.7384 14.2448C9.7384 14.6454 9.61992 14.9969 9.38296 15.2994C9.14599 15.5937 8.83959 15.8186 8.46374 15.9739C8.09603 16.1292 7.71607 16.2069 7.32387 16.2069C6.78459 16.2069 6.28206 16.117 5.81633 15.9371C5.35058 15.7572 4.97062 15.467 4.67647 15.0664Z" fill="white"/>
<path d="M16.6171 9.401C16.8296 9.401 17.0053 9.47048 17.1442 9.60947C17.2831 9.74845 17.3525 9.9283 17.3525 10.149V15.3362C17.3525 15.5488 17.2831 15.7286 17.1442 15.8758C17.0053 16.0148 16.8296 16.0842 16.6171 16.0842C16.4047 16.0842 16.229 16.0148 16.0901 15.8758C15.9594 15.7368 15.8899 15.561 15.8817 15.3485C15.6775 15.5856 15.3996 15.7899 15.0483 15.9616C14.7051 16.1251 14.3415 16.2069 13.9575 16.2069C13.3937 16.2069 12.883 16.0638 12.4254 15.7777C11.9678 15.4834 11.6042 15.0787 11.3346 14.5637C11.0731 14.0486 10.9424 13.4641 10.9424 12.8101C10.9424 12.1561 11.0731 11.5715 11.3346 11.0565C11.5961 10.5333 11.9515 10.1286 12.4009 9.84246C12.8585 9.54816 13.361 9.401 13.9085 9.401C14.3006 9.401 14.6684 9.47457 15.0115 9.62173C15.3547 9.76072 15.6448 9.94056 15.8817 10.1613V10.149C15.8817 9.93648 15.9512 9.76072 16.0901 9.62173C16.229 9.47457 16.4047 9.401 16.6171 9.401ZM14.1413 14.858C14.6724 14.858 15.1055 14.6658 15.4405 14.2816C15.7755 13.8892 15.943 13.3987 15.943 12.8101C15.943 12.2214 15.7755 11.7309 15.4405 11.3385C15.1055 10.9461 14.6724 10.7499 14.1413 10.7499C13.6184 10.7499 13.1894 10.9461 12.8544 11.3385C12.5194 11.7309 12.3519 12.2214 12.3519 12.8101C12.3519 13.3987 12.5153 13.8892 12.8421 14.2816C13.1771 14.6658 13.6102 14.858 14.1413 14.858Z" fill="white"/>
<path d="M20.785 15.3361C20.785 15.5487 20.7114 15.7285 20.5644 15.8757C20.4255 16.0147 20.2498 16.0841 20.0373 16.0841C19.8331 16.0841 19.6615 16.0147 19.5226 15.8757C19.3837 15.7285 19.3142 15.5487 19.3142 15.3361V7.75767C19.3142 7.54512 19.3837 7.36936 19.5226 7.23038C19.6697 7.08321 19.8494 7.00964 20.0619 7.00964C20.2661 7.00964 20.4377 7.08321 20.5766 7.23038C20.7155 7.36936 20.785 7.54512 20.785 7.75767V15.3361Z" fill="white"/>
<path d="M28.5037 12.6506C28.4955 12.8469 28.4179 13.0063 28.2709 13.1289C28.1238 13.2515 27.9522 13.3128 27.7561 13.3128H23.7115C23.8095 13.7952 24.0342 14.1753 24.3856 14.4533C24.7369 14.7231 25.1332 14.858 25.5744 14.858C25.9095 14.858 26.1708 14.8294 26.359 14.7721C26.5468 14.7067 26.6938 14.6413 26.8 14.5759C26.9146 14.5024 26.9922 14.4533 27.0331 14.4288C27.1801 14.3552 27.3189 14.3184 27.4497 14.3184C27.6214 14.3184 27.7684 14.3797 27.891 14.5024C28.0136 14.625 28.0748 14.768 28.0748 14.9316C28.0748 15.1523 27.9604 15.3526 27.7316 15.5324C27.5029 15.7205 27.1963 15.8799 26.8123 16.0107C26.4284 16.1415 26.0403 16.2069 25.648 16.2069C24.9616 16.2069 24.361 16.0638 23.8463 15.7777C23.3397 15.4916 22.9475 15.0991 22.6697 14.6005C22.3918 14.0936 22.2529 13.5254 22.2529 12.8959C22.2529 12.1929 22.4 11.5756 22.6942 11.0442C22.9883 10.5128 23.3764 10.1082 23.8585 9.8302C24.3406 9.54407 24.8554 9.401 25.4029 9.401C25.9421 9.401 26.4487 9.54816 26.9226 9.84246C27.4047 10.1368 27.7887 10.5333 28.0748 11.032C28.3608 11.5307 28.5037 12.0702 28.5037 12.6506ZM25.4029 10.7499C24.455 10.7499 23.8953 11.1955 23.7237 12.0866H26.9349V12.0007C26.9023 11.6574 26.7347 11.3631 26.4325 11.1178C26.13 10.8726 25.7869 10.7499 25.4029 10.7499Z" fill="white"/>
<path d="M33.3704 9.40089C33.9343 9.40089 34.445 9.54806 34.9025 9.84236C35.3602 10.1285 35.7197 10.5291 35.9811 11.0441C36.2507 11.5591 36.3857 12.1437 36.3857 12.7977C36.3857 13.4517 36.2548 14.0403 35.9935 14.5636C35.7318 15.0786 35.3725 15.4833 34.9148 15.7776C34.4655 16.0637 33.9669 16.2068 33.4195 16.2068C33.0273 16.2068 32.6557 16.1291 32.3041 15.9738C31.961 15.8103 31.6749 15.6141 31.4462 15.3852V15.4587C31.4462 15.6713 31.3768 15.8511 31.238 15.9983C31.099 16.1373 30.9232 16.2068 30.7109 16.2068C30.4983 16.2068 30.3228 16.1373 30.1838 15.9983C30.045 15.8593 29.9756 15.6795 29.9756 15.4587V7.75767C29.9756 7.54512 30.045 7.36936 30.1838 7.23038C30.3228 7.08321 30.4983 7.00964 30.7109 7.00964C30.9232 7.00964 31.099 7.08321 31.238 7.23038C31.3768 7.36936 31.4462 7.54512 31.4462 7.75767V10.3206C31.6423 10.0754 31.916 9.8628 32.2673 9.68293C32.6187 9.4949 32.9865 9.40089 33.3704 9.40089ZM33.1867 14.8579C33.7097 14.8579 34.1386 14.6617 34.4735 14.2693C34.8086 13.8768 34.9762 13.3863 34.9762 12.7977C34.9762 12.2091 34.8086 11.7227 34.4735 11.3384C34.1468 10.946 33.7179 10.7498 33.1867 10.7498C32.6557 10.7498 32.2226 10.946 31.8875 11.3384C31.5526 11.7227 31.385 12.2091 31.385 12.7977C31.385 13.3863 31.5526 13.8768 31.8875 14.2693C32.2226 14.6617 32.6557 14.8579 33.1867 14.8579Z" fill="white"/>
<path d="M44.1569 12.8101C44.1569 13.4641 44.0098 14.0527 43.7156 14.5759C43.4213 15.091 43.017 15.4916 42.5022 15.7777C41.9957 16.0638 41.4359 16.2069 40.8229 16.2069C40.202 16.2069 39.6384 16.0638 39.1315 15.7777C38.625 15.4916 38.2246 15.091 37.9305 14.5759C37.6363 14.0527 37.4893 13.4641 37.4893 12.8101C37.4893 12.1561 37.6363 11.5715 37.9305 11.0565C38.2246 10.5333 38.625 10.1286 39.1315 9.84246C39.6384 9.54816 40.202 9.401 40.8229 9.401C41.4359 9.401 41.9957 9.54816 42.5022 9.84246C43.017 10.1286 43.4213 10.5333 43.7156 11.0565C44.0098 11.5715 44.1569 12.1561 44.1569 12.8101ZM42.686 12.8101C42.686 12.4095 42.6001 12.0539 42.4287 11.7432C42.2653 11.4244 42.0406 11.1791 41.7546 11.0074C41.4768 10.8358 41.1663 10.7499 40.8229 10.7499C40.4798 10.7499 40.1652 10.8358 39.8792 11.0074C39.6014 11.1791 39.3767 11.4244 39.2053 11.7432C39.0419 12.0539 38.9601 12.4095 38.9601 12.8101C38.9601 13.2106 39.0419 13.5663 39.2053 13.8769C39.3767 14.1876 39.6014 14.4288 39.8792 14.6005C40.1652 14.7721 40.4798 14.858 40.8229 14.858C41.1663 14.858 41.4768 14.7721 41.7546 14.6005C42.0406 14.4288 42.2653 14.1876 42.4287 13.8769C42.6001 13.5663 42.686 13.2106 42.686 12.8101Z" fill="white"/>
<path d="M48.7928 14.6984C48.9074 14.6984 49.0094 14.7556 49.0994 14.8701C49.1973 14.9764 49.2464 15.1194 49.2464 15.2993C49.2464 15.52 49.1238 15.7081 48.8786 15.8634C48.6417 16.0105 48.3721 16.0841 48.0698 16.0841C47.5632 16.0841 47.1343 15.9778 46.783 15.7653C46.4396 15.5446 46.2682 15.0826 46.2682 14.3796V10.995H45.7043C45.5082 10.995 45.3447 10.9296 45.2139 10.7988C45.0834 10.668 45.0178 10.5045 45.0178 10.3083C45.0178 10.1203 45.0834 9.96497 45.2139 9.84234C45.3447 9.71153 45.5082 9.64614 45.7043 9.64614H46.2682V8.86131C46.2682 8.64876 46.3376 8.47297 46.4764 8.33401C46.6236 8.18685 46.8033 8.11328 47.0158 8.11328C47.2199 8.11328 47.3916 8.18685 47.5306 8.33401C47.6694 8.47297 47.7388 8.64876 47.7388 8.86131V9.64614H48.609C48.8051 9.64614 48.9686 9.71153 49.0994 9.84234C49.2299 9.97314 49.2955 10.1366 49.2955 10.3329C49.2955 10.5209 49.2299 10.6803 49.0994 10.8111C48.9686 10.9337 48.8051 10.995 48.609 10.995H47.7388V14.3183C47.7388 14.49 47.7838 14.6167 47.8737 14.6984C47.9637 14.772 48.086 14.8088 48.2412 14.8088C48.3068 14.8088 48.3967 14.7924 48.5111 14.7597C48.609 14.7189 48.7031 14.6984 48.7928 14.6984Z" fill="white"/>
<path d="M37.6663 17.5331C38.3428 17.5331 38.8913 18.0818 38.8913 18.7587C38.8913 19.4355 38.3428 19.9843 37.6663 19.9843C36.9898 19.9843 36.4414 19.4355 36.4414 18.7587C36.4414 18.0818 36.9898 17.5331 37.6663 17.5331Z" fill="#FDB954" fill-opacity="0.67"/>
<path d="M41.2784 17.5331C41.9549 17.5331 42.5033 18.0818 42.5033 18.7587C42.5033 19.4355 41.9549 19.9843 41.2784 19.9843C40.6019 19.9843 40.0535 19.4355 40.0535 18.7587C40.0535 18.0818 40.6019 17.5331 41.2784 17.5331Z" fill="#FDB954" fill-opacity="0.83"/>
<path d="M44.7017 17.5331C45.3782 17.5331 45.9267 18.0818 45.9267 18.7587C45.9267 19.4355 45.3782 19.9843 44.7017 19.9843C44.0252 19.9843 43.4768 19.4355 43.4768 18.7587C43.4768 18.0818 44.0252 17.5331 44.7017 17.5331Z" fill="#FDB954"/>
</svg>
