<svg width="24" height="24" viewBox="0 0 24 24" fill="none" xmlns="http://www.w3.org/2000/svg">
<path d="M20 6C20 5.44772 19.5523 5 19 5C18.4477 5 18 5.44772 18 6H20ZM18 18C18 18.5523 18.4477 19 19 19C19.5523 19 20 18.5523 20 18H18ZM14 13C14.5523 13 15 12.5523 15 12C15 11.4477 14.5523 11 14 11V13ZM5 12L4.29289 11.2929C3.90237 11.6834 3.90237 12.3166 4.29289 12.7071L5 12ZM8.70711 9.70711C9.09763 9.31658 9.09763 8.68342 8.70711 8.29289C8.31658 7.90237 7.68342 7.90237 7.29289 8.29289L8.70711 9.70711ZM7.29289 15.7071C7.68342 16.0976 8.31658 16.0976 8.70711 15.7071C9.09763 15.3166 9.09763 14.6834 8.70711 14.2929L7.29289 15.7071ZM18 6V18H20V6H18ZM14 11H5V13H14V11ZM5.70711 12.7071L8.70711 9.70711L7.29289 8.29289L4.29289 11.2929L5.70711 12.7071ZM4.29289 12.7071L7.29289 15.7071L8.70711 14.2929L5.70711 11.2929L4.29289 12.7071Z" fill="#82858A"/>
</svg>
