<?xml version="1.0" encoding="UTF-8"?>
<svg xmlns="http://www.w3.org/2000/svg" xmlns:xlink="http://www.w3.org/1999/xlink" width="8pt" height="10pt" viewBox="0 0 8 10" version="1.1">
<g id="surface1">
<path style=" stroke:none;fill-rule:nonzero;fill:rgb(0%,0%,0%);fill-opacity:1;" d="M 4.667969 2.65625 L 4.667969 0 L 0.5 0 C 0.222656 0 0 0.210938 0 0.46875 L 0 9.53125 C 0 9.789062 0.222656 10 0.5 10 L 7.5 10 C 7.777344 10 8 9.789062 8 9.53125 L 8 3.125 L 5.167969 3.125 C 4.890625 3.125 4.667969 2.914062 4.667969 2.65625 Z M 1.332031 1.40625 C 1.332031 1.320312 1.40625 1.25 1.5 1.25 L 3.167969 1.25 C 3.257812 1.25 3.332031 1.320312 3.332031 1.40625 L 3.332031 1.71875 C 3.332031 1.804688 3.257812 1.875 3.167969 1.875 L 1.5 1.875 C 1.40625 1.875 1.332031 1.804688 1.332031 1.71875 Z M 1.332031 2.65625 C 1.332031 2.570312 1.40625 2.5 1.5 2.5 L 3.167969 2.5 C 3.257812 2.5 3.332031 2.570312 3.332031 2.65625 L 3.332031 2.96875 C 3.332031 3.054688 3.257812 3.125 3.167969 3.125 L 1.5 3.125 C 1.40625 3.125 1.332031 3.054688 1.332031 2.96875 Z M 5.351562 7.5 L 6.332031 7.5 C 6.515625 7.5 6.667969 7.640625 6.667969 7.8125 C 6.667969 7.984375 6.515625 8.125 6.332031 8.125 L 5.351562 8.125 C 5.007812 8.125 4.699219 7.945312 4.546875 7.660156 C 4.484375 7.542969 4.375 7.53125 4.332031 7.53125 C 4.289062 7.53125 4.183594 7.542969 4.125 7.652344 L 3.964844 7.953125 C 3.910156 8.058594 3.792969 8.125 3.667969 8.125 C 3.660156 8.125 3.652344 8.125 3.644531 8.125 C 3.507812 8.113281 3.394531 8.03125 3.351562 7.910156 L 3 6.925781 L 2.777344 7.546875 C 2.65625 7.894531 2.3125 8.125 1.925781 8.125 L 1.667969 8.125 C 1.484375 8.125 1.332031 7.984375 1.332031 7.8125 C 1.332031 7.640625 1.484375 7.5 1.667969 7.5 L 1.925781 7.5 C 2.027344 7.5 2.113281 7.441406 2.144531 7.351562 L 2.527344 6.28125 C 2.59375 6.089844 2.785156 5.960938 3 5.960938 C 3.214844 5.960938 3.40625 6.089844 3.472656 6.28125 L 3.761719 7.097656 C 4.175781 6.78125 4.890625 6.90625 5.136719 7.375 C 5.179688 7.453125 5.261719 7.5 5.351562 7.5 Z M 7.855469 2.050781 L 5.816406 0.136719 C 5.722656 0.046875 5.59375 0 5.460938 0 L 5.332031 0 L 5.332031 2.5 L 8 2.5 L 8 2.382812 C 8 2.257812 7.949219 2.140625 7.855469 2.050781 Z M 7.855469 2.050781 "/>
</g>
</svg>
