<svg width="20" height="19" viewBox="0 0 20 19" fill="none" xmlns="http://www.w3.org/2000/svg">
<path fill-rule="evenodd" clip-rule="evenodd" d="M4.42963 18.5005H16.3046C16.0553 18.5005 16.3046 18.2434 16.3046 18.5005V4.35769C16.3046 4.27026 16.0529 4.01183 16.3046 4.35769H15.1171C14.9544 4.01183 14.8309 3.88455 15.1171 4.35769V3.07198C14.9371 1.74085 13.9716 0.695429 12.7421 0.500549H7.99213C6.76008 0.689802 5.79192 1.73803 5.61713 3.07198V4.35769C5.895 3.88455 5.7715 4.01183 5.61713 4.35769H4.42963C4.68138 4.01183 4.42963 4.27026 4.42963 4.35769V18.5005C4.42963 18.2434 4.68019 18.5005 4.42963 18.5005V18.5005ZM8.94213 1.78626H11.7921C12.4417 1.78626 12.7421 2.03698 12.7421 1.78626V3.07198C12.7421 2.98712 12.64 3.07198 12.7421 3.07198H7.99213C8.09425 3.07198 7.99213 2.98712 7.99213 3.07198V1.78626C7.99213 2.03698 8.29138 1.78626 8.94213 1.78626V1.78626ZM3.24213 4.35769V18.5005C3.24213 18.2498 3.02481 18.5005 3.24213 18.5005H2.05463C1.40615 18.4817 0.884561 17.9169 0.867126 17.2148V5.64341C0.884561 4.94129 1.40615 4.37657 2.05463 4.35769H3.24213C3.02481 4.35769 3.24213 4.61484 3.24213 4.35769V4.35769V4.35769ZM17.4921 4.35769H18.6796C19.3281 4.37657 19.8497 4.94129 19.8671 5.64341V17.2148C19.8497 17.9169 19.3281 18.4817 18.6796 18.5005H17.4921C17.7094 18.5005 17.4921 18.2498 17.4921 18.5005V4.35769C17.4921 4.61484 17.7094 4.35769 17.4921 4.35769V4.35769Z" fill="#626f7f"/>
</svg>
