<svg width="24" height="25" viewBox="0 0 24 25" fill="none" xmlns="http://www.w3.org/2000/svg">
<path fill-rule="evenodd" clip-rule="evenodd" d="M12 7.75006C10.8954 7.75006 10 6.85463 10 5.75006C10 4.64549 10.8954 3.75006 12 3.75006C13.1046 3.75006 14 4.64549 14 5.75006C14 6.85463 13.1046 7.75006 12 7.75006ZM12 14.7501C10.8954 14.7501 10 13.8546 10 12.7501C10 11.6455 10.8954 10.7501 12 10.7501C13.1046 10.7501 14 11.6455 14 12.7501C14 13.8546 13.1046 14.7501 12 14.7501ZM10 19.7501C10 20.8546 10.8954 21.7501 12 21.7501C13.1046 21.7501 14 20.8546 14 19.7501C14 18.6455 13.1046 17.7501 12 17.7501C10.8954 17.7501 10 18.6455 10 19.7501Z" fill="#1A53C6"/>
</svg>
