<?xml version="1.0" encoding="UTF-8"?>
<svg xmlns="http://www.w3.org/2000/svg" xmlns:xlink="http://www.w3.org/1999/xlink" width="9pt" height="10pt" viewBox="0 0 9 10" version="1.1">
<g id="surface1">
<path style=" stroke:none;fill-rule:nonzero;fill:#626f7f;fill-opacity:0.7;" d="M 4.5 5 C 5.921875 5 7.070312 3.882812 7.070312 2.5 C 7.070312 1.121094 5.921875 0 4.5 0 C 3.078125 0 1.929688 1.117188 1.929688 2.5 C 1.929688 3.882812 3.078125 5 4.5 5 Z M 6.300781 5.625 L 5.964844 5.625 C 5.519531 5.824219 5.023438 5.9375 4.5 5.9375 C 3.976562 5.9375 3.484375 5.824219 3.035156 5.625 L 2.699219 5.625 C 1.210938 5.625 0 6.800781 0 8.25 L 0 9.0625 C 0 9.578125 0.433594 10 0.964844 10 L 8.035156 10 C 8.566406 10 9 9.578125 9 9.0625 L 9 8.25 C 9 6.800781 7.789062 5.625 6.300781 5.625 Z M 6.300781 5.625 "/>
</g>
</svg>
