<svg width="14" height="14" viewBox="0 0 14 14" fill="none" xmlns="http://www.w3.org/2000/svg">
<path d="M7.00333 0.866669C3.61666 0.866669 0.869995 3.61334 0.869995 7C0.869995 10.3867 3.61666 13.1333 7.00333 13.1333C10.39 13.1333 13.1367 10.3867 13.1367 7C13.1367 3.61334 10.39 0.866669 7.00333 0.866669ZM7.00333 12.0667C4.20333 12.0667 1.93666 9.8 1.93666 7C1.93666 4.2 4.20333 1.93334 7.00333 1.93334C9.80333 1.93334 12.07 4.2 12.07 7C12.07 9.8 9.80333 12.0667 7.00333 12.0667ZM9.04333 8.28002C9.25667 8.49335 9.25667 8.82668 9.04333 9.04001C8.93667 9.14668 8.80333 9.2 8.66999 9.2C8.53666 9.2 8.40332 9.14668 8.29665 9.04001L6.64333 7.38666C6.53667 7.27999 6.48333 7.14668 6.48333 7.01335V3.84001C6.48333 3.54668 6.72332 3.30668 7.01666 3.30668C7.30999 3.30668 7.54999 3.54668 7.54999 3.84001V6.8L9.04333 8.28002Z" fill="#1A53C6"/>
</svg>
