<svg width="32" height="32" fill="none" xmlns="http://www.w3.org/2000/svg"><path d="M16 0c8.837 0 16 7.163 16 16s-7.163 16-16 16S0 24.837 0 16 7.163 0 16 0z" fill="#7F4DA0"/><path d="M20.263 13.972c-.078-.632-.272-1.128-.617-1.568-.448-.566-1.021-.905-1.869-1.106-.552-.134-.776-.12-.975.063-.187.171-.223.514-.08.736.1.161.215.22.536.282.427.079.723.18.991.335.57.329.836.844.864 1.678.014.392.048.512.184.651a.588.588 0 00.897-.099c.07-.115.08-.164.088-.43a4.236 4.236 0 00-.02-.542z" fill="#fff"/><path d="M22.497 14.685c-.113-1.937-.87-3.495-2.227-4.592a6.274 6.274 0 00-2.699-1.245c-.37-.074-1.054-.134-1.17-.1a.72.72 0 00-.337.26c-.074.117-.09.38-.027.53.1.254.29.344.818.39.815.071 1.655.357 2.29.781a4.802 4.802 0 011.674 1.918c.322.666.52 1.627.515 2.486-.002.312.046.487.171.616.189.197.464.24.707.109.269-.141.332-.39.285-1.153zm2.471 7.459a2.12 2.12 0 00-.19-.38c-.397-.6-2.535-2.273-3.602-2.82-.61-.313-1.061-.418-1.396-.32-.36.102-.55.27-1.153 1.019-.243.3-.492.582-.558.626-.165.114-.487.205-.714.205-.527-.003-1.484-.344-2.22-.793-.572-.348-1.304-.971-1.866-1.588-.664-.724-1.115-1.363-1.472-2.084-.46-.927-.578-1.493-.385-1.907.047-.105.11-.215.139-.25.028-.032.325-.275.653-.54.645-.513.749-.63.869-.981.151-.446.11-.902-.123-1.36a18.68 18.68 0 00-.992-1.597c-.451-.645-1.576-2.024-1.8-2.21-.404-.33-.922-.387-1.493-.165-.604.234-1.734 1.145-2.217 1.78-.436.576-.603.984-.629 1.521-.022.443.016.627.25 1.193 1.828 4.44 4.557 7.985 8.305 10.8 1.958 1.47 3.988 2.59 6.094 3.355 1.229.446 1.762.468 2.39.102.266-.159.923-.832 1.29-1.322.605-.816.83-1.193.893-1.493.044-.206.01-.563-.073-.79z" fill="#fff"/><path d="M24.77 15.13a8.82 8.82 0 00-.61-2.996c-.379-.986-.763-1.629-1.49-2.499-.686-.816-1.219-1.281-2.064-1.8-1.18-.722-2.615-1.2-4.223-1.4-.549-.071-.673-.066-.841.046-.326.213-.322.743.005.953.109.067.205.091.643.148.674.091 1.107.177 1.621.317 2.015.55 3.565 1.677 4.601 3.348.867 1.394 1.227 2.787 1.176 4.567-.017.602-.005.707.087.852.177.27.641.323.88.1.148-.137.175-.24.205-.754.014-.27.017-.666.01-.882z" fill="#fff"/></svg>