<svg width="32" height="32" fill="none" xmlns="http://www.w3.org/2000/svg"><path d="M0 16C0 7.163 7.163 0 16 0s16 7.163 16 16-7.163 16-16 16S0 24.837 0 16z" fill="#4C6C91"/><path d="M16.837 21.25s.308-.033.466-.2c.144-.152.139-.44.139-.44s-.02-1.342.616-1.54c.626-.195 1.43 1.298 2.283 1.873.644.434 1.134.339 1.134.339l2.28-.031s1.191-.072.626-.992c-.047-.076-.33-.681-1.694-1.925-1.43-1.302-1.238-1.092.483-3.344 1.048-1.372 1.467-2.21 1.336-2.567-.124-.343-.895-.252-.895-.252l-2.566.016s-.19-.025-.332.057c-.137.081-.227.27-.227.27s-.405 1.062-.947 1.965c-1.143 1.904-1.6 2.005-1.786 1.887-.435-.276-.327-1.108-.327-1.699 0-1.846.286-2.615-.555-2.815-.279-.066-.484-.11-1.198-.117-.915-.009-1.69.004-2.13.214-.291.14-.517.453-.379.471.17.023.553.102.757.374.263.351.254 1.14.254 1.14s.151 2.173-.353 2.442c-.346.185-.82-.192-1.84-1.92-.52-.885-.915-1.864-.915-1.864s-.076-.182-.212-.28a1.063 1.063 0 00-.394-.156l-2.438.015s-.367.01-.5.167c-.12.138-.01.426-.01.426s1.909 4.384 4.07 6.594c1.983 2.026 4.234 1.893 4.234 1.893h1.02z" fill="#fff"/></svg>