<svg width="18" height="17" viewBox="0 0 18 17" fill="none" xmlns="http://www.w3.org/2000/svg">
<path fill-rule="evenodd" clip-rule="evenodd" d="M8.14103 2.8205C5.41501 2.8205 3.20513 5.03037 3.20513 7.75639C3.20513 10.4824 5.41501 12.6923 8.14103 12.6923C10.8671 12.6923 13.0769 10.4824 13.0769 7.75639C13.0769 5.03037 10.8671 2.8205 8.14103 2.8205ZM1.79488 7.75639C1.79488 4.25151 4.63615 1.41024 8.14103 1.41024C11.6459 1.41024 14.4872 4.25151 14.4872 7.75639C14.4872 11.2613 11.6459 14.1025 8.14103 14.1025C4.63615 14.1025 1.79488 11.2613 1.79488 7.75639Z" fill="#1A53C6"/>
<path fill-rule="evenodd" clip-rule="evenodd" d="M11.6264 11.2418C11.9018 10.9664 12.3482 10.9664 12.6236 11.2418L15.6909 14.3091C15.9663 14.5844 15.9663 15.0309 15.6909 15.3063C15.4155 15.5816 14.9691 15.5816 14.6937 15.3063L11.6264 12.239C11.351 11.9636 11.351 11.5171 11.6264 11.2418Z" fill="#1A53C6"/>
<path fill-rule="evenodd" clip-rule="evenodd" d="M5.32051 7.75639C5.32051 7.36696 5.63621 7.05127 6.02564 7.05127H10.2564C10.6458 7.05127 10.9615 7.36696 10.9615 7.75639C10.9615 8.14583 10.6458 8.46152 10.2564 8.46152H6.02564C5.63621 8.46152 5.32051 8.14583 5.32051 7.75639Z" fill="#1A53C6"/>
</svg>
