<svg width="18" height="17" viewBox="0 0 18 17" fill="none" xmlns="http://www.w3.org/2000/svg">
<path fill-rule="evenodd" clip-rule="evenodd" d="M8.67949 2.8205C5.95347 2.8205 3.74359 5.03037 3.74359 7.75639C3.74359 10.4824 5.95347 12.6923 8.67949 12.6923C11.4055 12.6923 13.6154 10.4824 13.6154 7.75639C13.6154 5.03037 11.4055 2.8205 8.67949 2.8205ZM2.33334 7.75639C2.33334 4.25151 5.17461 1.41024 8.67949 1.41024C12.1844 1.41024 15.0256 4.25151 15.0256 7.75639C15.0256 11.2613 12.1844 14.1025 8.67949 14.1025C5.17461 14.1025 2.33334 11.2613 2.33334 7.75639Z" fill="black"/>
<path fill-rule="evenodd" clip-rule="evenodd" d="M12.1649 11.2418C12.4402 10.9664 12.8867 10.9664 13.1621 11.2418L16.2294 14.3091C16.5047 14.5844 16.5047 15.0309 16.2294 15.3063C15.954 15.5816 15.5075 15.5816 15.2322 15.3063L12.1649 12.239C11.8895 11.9636 11.8895 11.5171 12.1649 11.2418Z" fill="black"/>
<path fill-rule="evenodd" clip-rule="evenodd" d="M8.67949 4.93588C9.06893 4.93588 9.38462 5.25158 9.38462 5.64101V9.87178C9.38462 10.2612 9.06893 10.5769 8.67949 10.5769C8.29006 10.5769 7.97437 10.2612 7.97437 9.87178V5.64101C7.97437 5.25158 8.29006 4.93588 8.67949 4.93588Z" fill="black"/>
<path fill-rule="evenodd" clip-rule="evenodd" d="M5.85898 7.75639C5.85898 7.36696 6.17467 7.05127 6.56411 7.05127H10.7949C11.1843 7.05127 11.5 7.36696 11.5 7.75639C11.5 8.14583 11.1843 8.46152 10.7949 8.46152H6.56411C6.17467 8.46152 5.85898 8.14583 5.85898 7.75639Z" fill="black"/>
</svg>
